<svg width="1672" height="352" viewBox="0 0 1672 352" fill="none" xmlns="http://www.w3.org/2000/svg">
<path d="M1.91753 351.299C2.42604 351.045 2.81271 350.599 2.99249 350.06C3.17227 349.521 3.13044 348.932 2.87619 348.423C2.62194 347.915 2.1761 347.528 1.63675 347.348C1.09741 347.169 0.508731 347.211 0.000230134 347.465C0.000230134 347.465 0.000230134 347.465 0.000230134 347.465C35.9301 355.634 68.6149 344.517 102.692 341.831C113.199 340.479 123.697 339.079 134.25 337.636C134.766 337.565 135.284 337.494 135.804 337.422C250.859 319.239 363.157 289.068 476.645 264.257C477.039 264.169 477.433 264.08 477.828 263.991C626.41 230.393 775.198 197.138 922.956 160.024C923.174 159.968 923.391 159.913 923.608 159.857C977.864 145.131 1033.7 133.635 1083.68 106.327C1083.81 106.25 1083.95 106.173 1084.09 106.097C1117.7 87.0733 1149.41 63.3295 1172.65 32.0226C1172.73 31.9128 1172.81 31.8033 1172.88 31.694C1176.96 26.2072 1178.96 18.2674 1176.31 11.5344C1176.25 11.3747 1176.19 11.2171 1176.13 11.0601C1174.68 6.83569 1170.65 3.0346 1165.99 2.39945C1165.82 2.37122 1165.65 2.34689 1165.48 2.32642C1144.32 4.82821 1132.99 21.7765 1119.08 33.7783C1118.9 33.9485 1118.73 34.1191 1118.55 34.29C1098.58 53.8587 1083.3 78.6211 1076.69 106.045C1076.64 106.272 1076.59 106.5 1076.54 106.727C1073.8 119.933 1083.18 131.288 1092.03 138.92C1092.22 139.084 1092.41 139.247 1092.61 139.41C1106.66 151.028 1124.21 156.801 1141.6 159.946C1141.83 159.986 1142.05 160.025 1142.27 160.064C1175.64 165.708 1209.16 161.039 1241.68 155.392C1241.86 155.36 1242.04 155.328 1242.21 155.295C1300.97 144.248 1358.63 128.884 1415.61 111.229C1415.72 111.196 1415.83 111.162 1415.93 111.129C1459.04 97.6758 1501.19 81.1793 1542.34 62.8364C1542.4 62.813 1542.45 62.7895 1542.5 62.766C1554.3 57.5648 1566.06 52.2665 1577.78 46.9117C1593.27 39.845 1608.7 32.6728 1624.14 25.5579C1624.16 25.5489 1624.18 25.54 1624.19 25.5311C1639.7 18.3898 1655.18 11.2249 1670.65 4.03717C1671.16 3.80075 1671.55 3.37173 1671.75 2.84449C1671.94 2.31725 1671.92 1.73498 1671.68 1.22577C1671.44 0.716559 1671.01 0.322123 1670.49 0.12923C1669.96 -0.0636621 1669.38 -0.0392091 1668.87 0.19721C1668.87 0.19721 1668.87 0.19721 1668.87 0.19721C1653.4 7.38484 1637.93 14.5459 1622.42 21.6858C1622.4 21.6947 1622.38 21.7036 1622.37 21.7126C1606.93 28.8251 1591.43 35.8007 1575.87 42.6403C1564.08 47.823 1552.27 52.9309 1540.43 57.9938C1540.38 58.0167 1540.32 58.0395 1540.27 58.0624C1498.99 75.9175 1456.9 91.5831 1413.94 104.725C1413.83 104.758 1413.73 104.79 1413.62 104.823C1356.83 122.067 1299.12 137.014 1240.88 147.96C1240.71 147.992 1240.53 148.024 1240.36 148.055C1208.15 153.674 1175.33 158.819 1143.3 153.843C1143.09 153.809 1142.87 153.774 1142.66 153.74C1125.87 150.971 1109.03 145.923 1095.74 135.569C1095.55 135.424 1095.37 135.279 1095.19 135.134C1086.5 128.161 1077.72 118.51 1079.95 107.407C1079.99 107.213 1080.03 107.019 1080.07 106.824C1086.22 80.1284 1100.94 55.5485 1120.55 36.3458C1120.73 36.1781 1120.9 36.0107 1121.07 35.8438C1134.43 23.8969 1148.42 7.66505 1165.04 5.96159C1165.16 5.97573 1165.28 5.99199 1165.39 6.01037C1168.88 6.50466 1171.85 8.75978 1173.21 12.2141C1173.26 12.3408 1173.31 12.4686 1173.36 12.5988C1175.74 18.3904 1174.31 24.9341 1170.57 30.0771C1170.5 30.1773 1170.43 30.2778 1170.36 30.3787C1147.53 61.1389 1115.65 84.2347 1082.33 102.939C1082.19 103.015 1082.06 103.091 1081.92 103.166C1032.72 129.902 976.819 141.417 922.625 155.992C922.408 156.047 922.191 156.102 921.974 156.157C774.258 192.952 625.332 225.663 476.762 259.258C476.368 259.346 475.974 259.435 475.58 259.524C362.09 284.344 249.714 315.086 135.212 333.175C134.696 333.247 134.182 333.318 133.669 333.388C123.126 334.83 112.639 336.228 102.144 337.579C68.8264 342.966 33.0888 342.349 1.91753 351.299Z" fill="black"/>
</svg>
